<svg xmlns="http://www.w3.org/2000/svg"
     width="40"
     height="40"
     viewBox="0 0 32 32"
     fill="currentColor">

    <path d="M16 3C8.82 3 3 8.82 3 16c0 2.58.76 5.08 2.19 7.22L3 29l5.94-2.15A12.92 12.92 0 0 0 16 29c7.18 0 13-5.82 13-13S23.18 3 16 3zm0 23.6c-2.08 0-4.12-.56-5.89-1.62l-.42-.25-3.52 1.27 1.3-3.43-.28-.44A10.55 10.55 0 0 1 5.4 16C5.4 10.15 10.15 5.4 16 5.4S26.6 10.15 26.6 16 21.85 26.6 16 26.6zm5.79-7.69c-.32-.16-1.91-.94-2.21-1.05-.3-.11-.52-.16-.74.16-.22.32-.85 1.05-1.04 1.27-.19.22-.38.24-.7.08-.32-.16-1.35-.5-2.57-1.59-.95-.85-1.59-1.9-1.77-2.22-.19-.32-.02-.49.14-.65.14-.14.32-.38.48-.57.16-.19.22-.32.33-.54.11-.22.05-.41-.03-.57-.08-.16-.74-1.78-1.01-2.44-.27-.65-.55-.56-.74-.57h-.63c-.22 0-.57.08-.87.41-.3.32-1.15 1.12-1.15 2.74s1.18 3.19 1.34 3.41c.16.22 2.31 3.52 5.59 4.93.78.34 1.39.54 1.87.69.79.25 1.5.21 2.06.13.63-.09 1.91-.78 2.18-1.53.27-.76.27-1.41.19-1.54-.08-.14-.3-.22-.63-.38z"/>
</svg>